<svg role="img" viewBox="0 0 24 24" xmlns="http://www.w3.org/2000/svg">
  <title>LinkedIn</title>
  <path fill="currentColor" d="M22.225 0H1.771C.792 0 0 .774 0 1.727v20.545C0 23.225.792 24 1.771 24h20.451c.978 0 1.771-.774 1.771-1.727V1.727C23.996.774 23.203 0 22.225 0zM7.078 20.452H3.539V9h3.539v11.452zM5.309 7.576c-1.133 0-2.051-.927-2.051-2.066 0-1.142.918-2.066 2.051-2.066 1.135 0 2.051.924 2.051 2.066 0 1.139-.916 2.066-2.051 2.066zm14.48 12.876h-3.539v-5.604c0-1.336-.025-3.06-1.865-3.06-1.867 0-2.152 1.46-2.152 2.97v5.694h-3.539V9h3.396v1.561h.048c.474-.897 1.632-1.846 3.361-1.846 3.592 0 4.255 2.363 4.255 5.436v6.301z"/>
</svg>
