<svg role="img" viewBox="0 0 24 24" xmlns="http://www.w3.org/2000/svg">
  <title>Instagram</title>
  <path fill="currentColor" d="M12 2.163c3.204 0 3.584.012 4.85.07 1.366.062 2.633.332 3.608 1.308.975.975 1.246 2.242 1.308 3.608.058 1.266.07 1.646.07 4.85s-.012 3.584-.07 4.85c-.062 1.366-.332 2.633-1.308 3.608-.975.975-2.242 1.246-3.608 1.308-1.266.058-1.646.07-4.85.07s-3.584-.012-4.85-.07c-1.366-.062-2.633-.332-3.608-1.308-.975-.975-1.246-2.242-1.308-3.608C2.175 15.747 2.163 15.367 2.163 12s.012-3.584.07-4.85c.062-1.366.332-2.633 1.308-3.608.975-.975 2.242-1.246 3.608-1.308C8.416 2.175 8.796 2.163 12 2.163zm0-2.163C8.741 0 8.332.014 7.052.072 5.78.13 4.61.402 3.635 1.377c-.975.975-1.247 2.145-1.305 3.417C2.014 5.667 2 6.076 2 9.334v5.332c0 3.258.014 3.667.072 4.948.058 1.272.33 2.442 1.305 3.417.975.975 2.145 1.247 3.417 1.305C8.332 23.986 8.741 24 12 24s3.668-.014 4.948-.072c1.272-.058 2.442-.33 3.417-1.305.975-.975 1.247-2.145 1.305-3.417.058-1.281.072-1.69.072-4.948V9.334c0-3.258-.014-3.667-.072-4.948-.058-1.272-.33-2.442-1.305-3.417-.975-.975-2.145-1.247-3.417-1.305C15.668.014 15.259 0 12 0zm0 5.838a6.162 6.162 0 100 12.324 6.162 6.162 0 000-12.324zm0 10.162a3.998 3.998 0 110-7.996 3.998 3.998 0 010 7.996zm6.406-11.845a1.44 1.44 0 11-2.879 0 1.44 1.44 0 012.879 0z"/>
</svg>
